HIERARCHY
ROOT Hips
{
	OFFSET 12.320164 -1.521004 2.220819
	CHANNELS 6 Xposition Yposition Zposition Zrotation Yrotation Xrotation
	JOINT LHipJoint
	{
		OFFSET 0.722728 4.833684 -0.838608
		CHANNELS 3 Zrotation Yrotation Xrotation
		JOINT LeftUpLeg
		{
			OFFSET 2.027010 3.904780 3.838892
			CHANNELS 3 Zrotation Yrotation Xrotation
			JOINT LeftLeg
			{
				OFFSET 4.365685 11.973523 9.485794
				CHANNELS 3 Zrotation Yrotation Xrotation
				JOINT LeftFoot
				{
					OFFSET 6.969448 0.941915 1.531151
					CHANNELS 3 Zrotation Yrotation Xrotation
					JOINT LeftToeBase
					{
						OFFSET -0.498172 -5.442563 -3.191742
						CHANNELS 3 Zrotation Yrotation Xrotation
						End Site
						{
							OFFSET 0.000000 0.000000 0.000000
						}
					}
				}
			}
		}
	}
	JOINT RHipJoint
	{
		OFFSET -11.552003 -2.388528 -8.096370
		CHANNELS 3 Zrotation Yrotation Xrotation
		JOINT RightUpLeg
		{
			OFFSET -4.215555 -0.486769 0.131063
			CHANNELS 3 Zrotation Yrotation Xrotation
			JOINT RightLeg
			{
				OFFSET -9.165436 -6.551739 -3.788518
				CHANNELS 3 Zrotation Yrotation Xrotation
				JOINT RightFoot
				{
					OFFSET -12.494514 -15.218544 -3.153035
					CHANNELS 3 Zrotation Yrotation Xrotation
					JOINT RightToeBase
					{
						OFFSET -6.098624 13.000112 -5.979316
						CHANNELS 3 Zrotation Yrotation Xrotation
						End Site
						{
							OFFSET 0.000000 0.000000 0.000000
						}
					}
				}
			}
		}
	}
	JOINT LowerBack
	{
		OFFSET 6.046926 10.008132 1.340018
		CHANNELS 3 Zrotation Yrotation Xrotation
		JOINT Spine
		{
			OFFSET -8.351398 9.751770 32.830109
			CHANNELS 3 Zrotation Yrotation Xrotation
			JOINT Spine1
			{
				OFFSET 37.102467 45.191746 -11.638301
				CHANNELS 3 Zrotation Yrotation Xrotation
				JOINT Neck
				{
					OFFSET 4.308439 53.176559 61.117428
					CHANNELS 3 Zrotation Yrotation Xrotation
					JOINT Neck1
					{
						OFFSET 31.533718 -6.200984 4.762776
						CHANNELS 3 Zrotation Yrotation Xrotation
						JOINT Head
						{
							OFFSET 7.151807 13.865652 15.938004
							CHANNELS 3 Zrotation Yrotation Xrotation
							End Site
							{
								OFFSET 0.000000 0.000000 0.000000
							}
						}
					}
				}
				JOINT LeftShoulder
				{
					OFFSET 5.332782 10.693651 14.638223
					CHANNELS 3 Zrotation Yrotation Xrotation
					JOINT LeftArm
					{
						OFFSET 3.866005 9.637448 22.846548
						CHANNELS 3 Zrotation Yrotation Xrotation
						JOINT LeftForeArm
						{
							OFFSET 14.903580 52.047104 26.970764
							CHANNELS 3 Zrotation Yrotation Xrotation
							JOINT LeftHand
							{
								OFFSET 69.679611 18.976908 -19.063107
								CHANNELS 3 Zrotation Yrotation Xrotation
								JOINT LeftFingerBase
								{
									OFFSET 40.124809 -11.200215 17.090284
									CHANNELS 3 Zrotation Yrotation Xrotation
									JOINT LeftHandIndex1
									{
										OFFSET 11.999125 10.544118 15.878088
										CHANNELS 3 Zrotation Yrotation Xrotation
										End Site
										{
											OFFSET 0.000000 0.000000 0.000000
										}
									}
								}
								JOINT LThumb
								{
									OFFSET -1.204604 -7.649830 6.749357
									CHANNELS 3 Zrotation Yrotation Xrotation
									End Site
									{
										OFFSET 0.000000 0.000000 0.000000
									}
								}
							}
						}
					}
				}
				JOINT RightShoulder
				{
					OFFSET 0.101472 11.592249 11.879243
					CHANNELS 3 Zrotation Yrotation Xrotation
					JOINT RightArm
					{
						OFFSET 4.322875 -1.298929 4.765478
						CHANNELS 3 Zrotation Yrotation Xrotation
						JOINT RightForeArm
						{
							OFFSET 8.240278 15.221663 7.229832
							CHANNELS 3 Zrotation Yrotation Xrotation
							JOINT RightHand
							{
								OFFSET 4.526523 5.036262 4.156419
								CHANNELS 3 Zrotation Yrotation Xrotation
								JOINT RightFingerBase
								{
									OFFSET 60.616577 29.078583 94.870399
									CHANNELS 3 Zrotation Yrotation Xrotation
									JOINT RightHandIndex1
									{
										OFFSET 20.704073 87.692719 37.079327
										CHANNELS 3 Zrotation Yrotation Xrotation
										End Site
										{
											OFFSET 0.000000 0.000000 0.000000
										}
									}
								}
								JOINT RThumb
								{
									OFFSET 38.261459 -73.556145 -29.501194
									CHANNELS 3 Zrotation Yrotation Xrotation
									End Site
									{
										OFFSET -287.266602 -723.803589 549.861877
									}
								}
							}
						}
					}
				}
			}
		}
	}
}
MOTION
Frames: 10
Frame Time: 0.008333
-2.675116 15.933542 8.718474 -6.061903 -5.054759 -2.630493 -5.460412 -3.266016 3.347947 -38.898048 -40.239822 -80.082306 -13.361319 2.787953 15.733549 -1.358299 -43.957462 27.492785 -1.690819 0.717833 -44.573776 -5.894062 -6.920634 -10.604888 -36.098747 -46.246536 -15.222028 5.873782 -1.767331 -17.838505 -25.804691 -57.576336 -76.381615 -4.915114 -17.361036 -60.878628 -17.718962 -19.331545 -62.141487 4.938832 -25.353254 34.994377 28.693676 12.861447 -39.665394 -34.445423 22.850296 -27.812435 7.308966 -9.033905 45.250233 -6.918716 -2.061500 22.751085 12.132416 -2.097692 1.805812 -135.630692 -11.891574 -44.861076 183.607025 -57.968647 40.056355 -4.291894 -19.716722 -11.401678 -130.273361 -138.194534 -9.090477 -7.125000 0.000000 0.000000 -78.424232 43.628162 -103.587173 -12.778150 -5.918921 -2.544696 51.007790 -4.817930 -89.486252 -12.763369 2.201042 -17.934258 -0.494754 -10.576636 272.549561 -805.998535 -1648.021729 -509.730011 7.125000 0.000000 0.000000 1342.323486 -20580.076172 38486.710938
-8.317176 16.996861 4.636859 -0.243766 3.890810 20.834341 6.250115 -3.604556 2.904541 6.550880 32.505836 -4.595677 -17.394739 -6.611196 22.840302 0.647754 -79.843445 -46.347321 -5.587688 -11.841298 -36.022388 -6.550769 -8.831824 -3.462500 52.540443 -33.060436 -49.601791 -17.295935 -24.281162 22.891010 -2.407726 -27.467823 57.500908 2.103878 -1.886161 -48.527813 12.261334 12.581463 -0.967114 10.749449 -123.313286 -26.675035 -18.900190 32.361076 -16.194178 -46.883621 31.362846 -21.297012 26.578663 -11.641054 66.632454 4.041975 2.825411 8.338978 6.361719 -9.802913 3.700056 -41.560513 11.005143 45.198318 -71.568886 -96.805634 175.501328 -11.282610 -2.174587 205.670624 23.201962 0.695128 -1.987412 -7.125000 0.000000 0.000000 62.577042 94.213310 -138.330139 -2.825728 25.366594 2.007843 25.409126 -58.400570 -151.064331 -2.800001 29.315105 -9.553164 -11.592701 1.113493 -131.482590 242.286163 -641.903564 1029.821899 7.125000 0.000000 0.000000 -1822.531616 4961.565918 -15476.671875
-0.357729 20.040804 54.982380 5.670122 5.410762 17.916790 2.368164 -4.343794 -6.394513 3.250786 4.398899 10.227287 0.465948 13.355935 30.382219 16.399040 22.659746 19.919273 3.058544 0.937780 47.578136 20.870481 8.466353 10.166218 69.525558 -0.783036 33.098427 4.781881 -13.971920 15.459938 1.167409 -12.865489 0.073046 -1.377141 13.188991 6.225714 41.092865 10.822144 39.647240 26.244291 40.363773 27.739559 -25.640865 16.908152 -14.274562 -43.078419 28.263115 25.013371 23.402287 -0.510525 19.183382 6.864944 2.000656 -3.222337 12.256890 -3.034305 -6.541756 -102.243507 -152.834686 -0.464111 232.169388 261.872253 428.415436 13.750534 14.216660 128.139664 132.142166 83.833000 48.053082 -7.125000 0.000000 0.000000 106.406494 69.253540 38.531570 0.774413 18.303183 1.053367 99.680878 43.282436 129.751083 -26.936373 23.629412 3.007553 2.951500 8.267564 356.317963 208.996384 480.622894 748.305115 7.125000 0.000000 0.000000 10734.217773 10016.795898 -21642.304688
-1.297019 18.834591 -8.062799 -12.655048 -25.181890 2.624215 1.384099 1.005990 -3.721733 7.267052 -11.255086 -11.069254 -3.333486 9.290915 -34.556526 7.649260 -12.528039 -25.145369 1.554531 -8.725130 10.722272 -2.387424 -2.163823 2.283764 42.270370 2.864330 7.386961 17.677750 16.653996 60.008953 8.842240 2.937883 21.522291 5.840577 18.052979 -63.949314 24.133678 -14.380890 35.217068 4.558120 1.382993 -68.794159 -63.153568 5.295222 -5.762481 -39.927631 13.990864 -26.060295 -3.816536 -19.746407 -44.395977 7.527318 7.013292 7.132392 6.602721 -2.159781 -3.913928 -62.011086 130.451324 -91.487930 -206.177826 -251.988708 -286.209473 -6.137430 -28.118799 8.624897 110.122955 -42.998566 12.186050 -7.125000 0.000000 0.000000 -5.892056 -4.768166 77.087128 -0.945351 15.629913 -1.504568 80.379883 42.258785 219.638550 -0.039785 96.495819 54.021725 18.619995 -4.852199 216.906281 -756.440674 638.116821 -282.959106 7.125000 0.000000 0.000000 5270.434082 -13195.791016 -10631.504883
4.443767 18.959856 20.905416 -6.837929 -13.951669 2.361014 -1.751842 -2.556949 -5.121262 -1.265077 4.196937 -24.231922 -18.260647 -5.590082 -20.906336 24.011921 73.723419 31.386929 2.681931 8.341080 39.548290 -1.257773 -1.592041 -1.332659 20.899927 3.947653 -41.389141 5.032212 4.888482 10.075581 12.392619 -11.907674 -6.036038 2.756674 2.294324 -9.746185 4.521987 -4.151767 36.931404 -2.784137 -154.358231 -103.587738 6.375423 45.175594 -20.061760 -102.772827 -16.336992 -65.875290 11.362854 12.209244 36.753567 6.386019 -1.053738 -11.027264 -11.382825 -3.652949 3.657352 -49.728741 148.825089 -277.017273 -421.818085 -223.550659 -266.411469 6.010777 17.532480 337.668274 131.396957 -59.431709 -28.078266 -7.125000 0.000000 0.000000 -73.623581 -50.816990 -221.428268 -37.084515 -5.106879 1.418133 32.503872 -87.597183 -145.872314 -113.669411 -32.406437 -70.831886 15.753605 -14.086569 -467.440125 -1944.889404 -59.405739 -654.771973 7.125000 0.000000 0.000000 -6636.662109 3199.236572 -41039.902344
-3.730022 16.017675 -45.523029 -6.836751 -13.905771 -10.965565 -12.000550 -5.396513 -1.762720 -13.665962 -18.126648 -53.985428 -3.641846 15.607864 -14.981054 11.555553 62.894650 26.387699 1.082589 0.966801 -11.697231 -14.207277 0.165235 6.298648 37.841232 7.755120 -48.268288 -0.842775 -16.026352 -119.383820 -9.283175 -29.283613 7.543161 0.277473 15.592299 -3.408388 -25.036983 -19.954985 -35.149090 -1.853256 -133.344238 -14.626421 12.785604 -5.329023 -96.630554 -66.129517 16.685253 -12.297976 32.509869 -20.956669 16.742245 5.150052 11.168114 10.178678 23.868561 16.176691 2.403284 -142.871704 -29.111706 -266.218567 -238.590149 7.905762 -89.391022 1.408161 -4.047956 -183.553787 -96.465820 -73.927391 7.833852 -7.125000 0.000000 0.000000 -40.148338 65.354874 114.789719 0.946753 -8.690576 1.399729 88.086617 83.461197 183.527863 -49.527630 37.730644 -71.253876 2.583796 -14.694425 -189.494492 -233.363174 145.016891 -1635.892578 7.125000 0.000000 0.000000 -6347.566895 69.463104 17905.574219
6.320129 18.605175 18.749876 -3.269330 -16.540213 -11.169992 -0.928145 -6.516276 0.249990 -9.869883 -3.555776 -55.548248 -6.034497 7.743614 -14.927530 -0.616142 2.628541 6.409996 -0.705204 -10.358287 -60.978184 -34.110840 -12.396765 -6.146799 -32.875427 -42.156033 -29.681135 15.588382 5.864804 -56.119335 -0.772206 -5.404631 -16.862638 -7.020215 -5.638223 -118.595360 -21.868200 -27.475239 -81.018463 -5.656089 -95.488037 -41.297638 -67.660149 -21.444029 -90.876328 -90.797440 -45.900532 -67.147430 1.124546 3.879971 42.079773 -12.333904 -7.700533 -6.589289 10.759563 -1.509121 -0.972699 -80.481636 53.705845 -110.750923 -311.478455 -495.926727 -313.279633 -9.863466 1.324985 316.895203 5.625792 -119.032448 -75.116585 -7.125000 0.000000 0.000000 -91.400887 -64.442413 -60.882462 -23.409258 -6.802411 -5.406561 29.583557 21.963455 149.534088 -60.809521 -5.225000 -35.835732 -6.070969 -28.116673 -587.183838 -1293.744507 494.917725 -727.085693 7.125000 0.000000 0.000000 -4214.663574 -2066.645752 17039.548828
-1.486455 17.281281 -35.086933 -2.174167 -2.746465 11.869768 14.365012 -3.021878 9.044382 20.961794 22.922604 -32.882713 2.050848 14.081882 52.206169 22.707159 95.699936 86.227676 2.831062 11.159627 77.659355 13.565430 0.046629 2.780469 19.880188 16.537121 -7.191708 0.836314 11.116946 55.541161 14.207561 30.205221 20.637430 4.011303 33.943443 35.697922 23.605106 11.285114 20.952976 57.001842 34.312836 -11.879878 -5.835564 45.929127 33.878975 -45.127651 30.055866 35.496269 -3.168291 27.059952 72.421844 9.991006 1.828703 3.684188 11.613177 -12.015663 3.811103 -54.231277 -128.893753 -11.014149 95.745064 -144.027435 70.029503 0.066839 13.227834 336.736725 12.643667 7.330818 53.029499 -7.125000 0.000000 0.000000 87.715790 93.809418 135.052414 -7.852634 28.855476 6.632512 83.796204 12.526588 272.503632 66.746330 8.091599 -42.497349 -1.935229 8.717944 208.511429 916.158813 1290.136841 -523.371277 7.125000 0.000000 0.000000 -5058.593750 22649.000000 -24405.066406
-2.222270 18.316772 18.727066 13.112474 8.064387 12.178638 7.499331 -3.198076 -0.443250 -9.959515 0.042247 -18.845085 14.351950 25.497438 76.323944 8.904868 41.319450 62.656281 3.141747 0.263727 9.930989 5.614467 4.808190 19.227358 54.534325 -7.740354 -62.617764 -17.862448 -20.827326 20.712507 -3.669422 -51.332340 -77.154686 -2.497827 11.260460 53.576439 9.706985 -16.658699 1.569096 22.019680 14.780005 31.829664 61.213604 1.859467 4.409599 -73.772583 -24.830812 -94.643158 -35.555706 -30.630238 -5.313401 -0.994987 -0.492024 -3.303563 -1.173213 -9.371208 4.907593 -111.516930 24.597965 -72.479874 -279.243469 23.560928 -163.202316 -0.641823 3.826151 -32.084904 -10.558325 -92.340607 -143.827728 -7.125000 0.000000 0.000000 -33.496368 28.521006 151.991760 -11.332950 1.523965 -7.022456 102.623604 -4.284827 96.295120 -77.986061 37.914452 -35.112003 8.174891 -4.577766 374.294525 -93.872231 137.538345 -3895.824707 7.125000 0.000000 0.000000 -19675.593750 781.144104 -17641.343750
6.163177 20.986172 87.219940 18.308834 12.008365 16.360723 15.934114 8.343814 14.714704 17.198393 38.077255 23.879963 14.790388 27.188904 109.525673 10.533771 40.696537 91.333504 8.439883 21.330240 84.011116 31.818584 11.363112 31.752167 104.281975 57.261166 132.034058 40.243130 20.463734 94.758728 17.729103 98.874901 118.113846 11.072546 20.055948 201.543289 56.654713 40.730068 84.304214 39.771328 59.796734 140.825790 193.480316 28.648684 50.904755 -11.114506 69.743584 34.137398 18.854782 45.382256 70.297928 18.607008 9.004865 8.416900 0.988198 10.227485 10.354814 -66.383492 140.153625 311.937805 -80.721519 415.390503 256.363312 37.387127 72.407616 347.089050 188.570602 109.193130 -9.711788 -7.125000 0.000000 0.000000 136.390945 151.149628 258.494934 26.168344 21.757275 2.194661 164.384033 78.117676 435.611816 112.943581 147.041367 82.223541 34.328094 19.158842 511.701813 1780.457031 1726.460327 2777.830566 7.125000 0.000000 0.000000 13123.412109 9932.916016 47398.789062
